<svg width="744" height="68" viewBox="0 0 744 68" fill="none" xmlns="http://www.w3.org/2000/svg">
<path opacity="0.4" d="M47.6667 30.5733L43.3334 38L42.4934 39.4533L39.2 45.08C38.96 45.5067 38.3467 45.52 38.0801 45.1067L33.5734 38.3733C33.4267 38.1467 33.4267 37.8533 33.5734 37.6267L38.4667 30.2933C38.5867 30.1067 38.8 30 39.0267 30H47.3334L47.6667 30.5733Z" fill="#15B79E"/>
<path d="M62.4533 37.64L53.52 22.3333C53.4133 22.12 53.1866 22 52.9466 22H43.8266C43.3066 22 42.9866 22.56 43.2533 23L47.3333 30L47.6666 30.5733L51.4133 37C51.68 37.44 51.36 38 50.84 38H43.3333L42.4933 39.4533C42.7333 39.0267 43.3466 39.0133 43.6133 39.4267L47.8 45.7067C47.92 45.8933 48.1333 46 48.3599 46H56.9733C57.2 46 57.4133 45.8933 57.5333 45.7067L62.4399 38.3467C62.5733 38.1333 62.5866 37.8667 62.4533 37.64Z" fill="#15B79E"/>
<path d="M80.2 41.14C79.2267 41.14 78.3467 40.9733 77.56 40.64C76.7867 40.3067 76.1733 39.8267 75.72 39.2C75.2667 38.5733 75.0333 37.8333 75.02 36.98H78.02C78.06 37.5533 78.26 38.0067 78.62 38.34C78.9933 38.6733 79.5 38.84 80.14 38.84C80.7933 38.84 81.3067 38.6867 81.68 38.38C82.0533 38.06 82.24 37.6467 82.24 37.14C82.24 36.7267 82.1133 36.3867 81.86 36.12C81.6067 35.8533 81.2867 35.6467 80.9 35.5C80.5267 35.34 80.0067 35.1667 79.34 34.98C78.4333 34.7133 77.6933 34.4533 77.12 34.2C76.56 33.9333 76.0733 33.54 75.66 33.02C75.26 32.4867 75.06 31.78 75.06 30.9C75.06 30.0733 75.2667 29.3533 75.68 28.74C76.0933 28.1267 76.6733 27.66 77.42 27.34C78.1667 27.0067 79.02 26.84 79.98 26.84C81.42 26.84 82.5867 27.1933 83.48 27.9C84.3867 28.5933 84.8867 29.5667 84.98 30.82H81.9C81.8733 30.34 81.6667 29.9467 81.28 29.64C80.9067 29.32 80.4067 29.16 79.78 29.16C79.2333 29.16 78.7933 29.3 78.46 29.58C78.14 29.86 77.98 30.2667 77.98 30.8C77.98 31.1733 78.1 31.4867 78.34 31.74C78.5933 31.98 78.9 32.18 79.26 32.34C79.6333 32.4867 80.1533 32.66 80.82 32.86C81.7267 33.1267 82.4667 33.3933 83.04 33.66C83.6133 33.9267 84.1067 34.3267 84.52 34.86C84.9333 35.3933 85.14 36.0933 85.14 36.96C85.14 37.7067 84.9467 38.4 84.56 39.04C84.1733 39.68 83.6067 40.1933 82.86 40.58C82.1133 40.9533 81.2267 41.14 80.2 41.14ZM86.8475 35.42C86.8475 34.3 87.0675 33.3067 87.5075 32.44C87.9608 31.5733 88.5675 30.9067 89.3275 30.44C90.1008 29.9733 90.9608 29.74 91.9075 29.74C92.7342 29.74 93.4542 29.9067 94.0675 30.24C94.6942 30.5733 95.1942 30.9933 95.5675 31.5V29.92H98.3875V41H95.5675V39.38C95.2075 39.9 94.7075 40.3333 94.0675 40.68C93.4408 41.0133 92.7142 41.18 91.8875 41.18C90.9542 41.18 90.1008 40.94 89.3275 40.46C88.5675 39.98 87.9608 39.3067 87.5075 38.44C87.0675 37.56 86.8475 36.5533 86.8475 35.42ZM95.5675 35.46C95.5675 34.78 95.4342 34.2 95.1675 33.72C94.9008 33.2267 94.5408 32.8533 94.0875 32.6C93.6342 32.3333 93.1475 32.2 92.6275 32.2C92.1075 32.2 91.6275 32.3267 91.1875 32.58C90.7475 32.8333 90.3875 33.2067 90.1075 33.7C89.8408 34.18 89.7075 34.7533 89.7075 35.42C89.7075 36.0867 89.8408 36.6733 90.1075 37.18C90.3875 37.6733 90.7475 38.0533 91.1875 38.32C91.6408 38.5867 92.1208 38.72 92.6275 38.72C93.1475 38.72 93.6342 38.5933 94.0875 38.34C94.5408 38.0733 94.9008 37.7 95.1675 37.22C95.4342 36.7267 95.5675 36.14 95.5675 35.46ZM103.922 26.2V41H101.122V26.2H103.922ZM116.989 35.22C116.989 35.62 116.962 35.98 116.909 36.3H108.809C108.875 37.1 109.155 37.7267 109.649 38.18C110.142 38.6333 110.749 38.86 111.469 38.86C112.509 38.86 113.249 38.4133 113.689 37.52H116.709C116.389 38.5867 115.775 39.4667 114.869 40.16C113.962 40.84 112.849 41.18 111.529 41.18C110.462 41.18 109.502 40.9467 108.649 40.48C107.809 40 107.149 39.3267 106.669 38.46C106.202 37.5933 105.969 36.5933 105.969 35.46C105.969 34.3133 106.202 33.3067 106.669 32.44C107.135 31.5733 107.789 30.9067 108.629 30.44C109.469 29.9733 110.435 29.74 111.529 29.74C112.582 29.74 113.522 29.9667 114.349 30.42C115.189 30.8733 115.835 31.52 116.289 32.36C116.755 33.1867 116.989 34.14 116.989 35.22ZM114.089 34.42C114.075 33.7 113.815 33.1267 113.309 32.7C112.802 32.26 112.182 32.04 111.449 32.04C110.755 32.04 110.169 32.2533 109.689 32.68C109.222 33.0933 108.935 33.6733 108.829 34.42H114.089ZM123.272 41.18C122.366 41.18 121.552 41.02 120.832 40.7C120.112 40.3667 119.539 39.92 119.112 39.36C118.699 38.8 118.472 38.18 118.432 37.5H121.252C121.306 37.9267 121.512 38.28 121.872 38.56C122.246 38.84 122.706 38.98 123.252 38.98C123.786 38.98 124.199 38.8733 124.492 38.66C124.799 38.4467 124.952 38.1733 124.952 37.84C124.952 37.48 124.766 37.2133 124.392 37.04C124.032 36.8533 123.452 36.6533 122.652 36.44C121.826 36.24 121.146 36.0333 120.612 35.82C120.092 35.6067 119.639 35.28 119.252 34.84C118.879 34.4 118.692 33.8067 118.692 33.06C118.692 32.4467 118.866 31.8867 119.212 31.38C119.572 30.8733 120.079 30.4733 120.732 30.18C121.399 29.8867 122.179 29.74 123.072 29.74C124.392 29.74 125.446 30.0733 126.232 30.74C127.019 31.3933 127.452 32.28 127.532 33.4H124.852C124.812 32.96 124.626 32.6133 124.292 32.36C123.972 32.0933 123.539 31.96 122.992 31.96C122.486 31.96 122.092 32.0533 121.812 32.24C121.546 32.4267 121.412 32.6867 121.412 33.02C121.412 33.3933 121.599 33.68 121.972 33.88C122.346 34.0667 122.926 34.26 123.712 34.46C124.512 34.66 125.172 34.8667 125.692 35.08C126.212 35.2933 126.659 35.6267 127.032 36.08C127.419 36.52 127.619 37.1067 127.632 37.84C127.632 38.48 127.452 39.0533 127.092 39.56C126.746 40.0667 126.239 40.4667 125.572 40.76C124.919 41.04 124.152 41.18 123.272 41.18ZM137.496 38.78H142.096V41H134.696V27.04H137.496V38.78ZM143.156 35.42C143.156 34.3 143.376 33.3067 143.816 32.44C144.269 31.5733 144.876 30.9067 145.636 30.44C146.409 29.9733 147.269 29.74 148.216 29.74C149.043 29.74 149.763 29.9067 150.376 30.24C151.003 30.5733 151.503 30.9933 151.876 31.5V29.92H154.696V41H151.876V39.38C151.516 39.9 151.016 40.3333 150.376 40.68C149.749 41.0133 149.023 41.18 148.196 41.18C147.263 41.18 146.409 40.94 145.636 40.46C144.876 39.98 144.269 39.3067 143.816 38.44C143.376 37.56 143.156 36.5533 143.156 35.42ZM151.876 35.46C151.876 34.78 151.743 34.2 151.476 33.72C151.209 33.2267 150.849 32.8533 150.396 32.6C149.943 32.3333 149.456 32.2 148.936 32.2C148.416 32.2 147.936 32.3267 147.496 32.58C147.056 32.8333 146.696 33.2067 146.416 33.7C146.149 34.18 146.016 34.7533 146.016 35.42C146.016 36.0867 146.149 36.6733 146.416 37.18C146.696 37.6733 147.056 38.0533 147.496 38.32C147.949 38.5867 148.429 38.72 148.936 38.72C149.456 38.72 149.943 38.5933 150.396 38.34C150.849 38.0733 151.209 37.7 151.476 37.22C151.743 36.7267 151.876 36.14 151.876 35.46ZM168.031 29.92L161.171 46.24H158.191L160.591 40.72L156.151 29.92H159.291L162.151 37.66L165.051 29.92H168.031ZM179.84 35.22C179.84 35.62 179.813 35.98 179.76 36.3H171.66C171.727 37.1 172.007 37.7267 172.5 38.18C172.993 38.6333 173.6 38.86 174.32 38.86C175.36 38.86 176.1 38.4133 176.54 37.52H179.56C179.24 38.5867 178.627 39.4667 177.72 40.16C176.813 40.84 175.7 41.18 174.38 41.18C173.313 41.18 172.353 40.9467 171.5 40.48C170.66 40 170 39.3267 169.52 38.46C169.053 37.5933 168.82 36.5933 168.82 35.46C168.82 34.3133 169.053 33.3067 169.52 32.44C169.987 31.5733 170.64 30.9067 171.48 30.44C172.32 29.9733 173.287 29.74 174.38 29.74C175.433 29.74 176.373 29.9667 177.2 30.42C178.04 30.8733 178.687 31.52 179.14 32.36C179.607 33.1867 179.84 34.14 179.84 35.22ZM176.94 34.42C176.927 33.7 176.667 33.1267 176.16 32.7C175.653 32.26 175.033 32.04 174.3 32.04C173.607 32.04 173.02 32.2533 172.54 32.68C172.073 33.0933 171.787 33.6733 171.68 34.42H176.94ZM184.684 31.64C185.044 31.0533 185.511 30.5933 186.084 30.26C186.671 29.9267 187.337 29.76 188.084 29.76V32.7H187.344C186.464 32.7 185.797 32.9067 185.344 33.32C184.904 33.7333 184.684 34.4533 184.684 35.48V41H181.884V29.92H184.684V31.64Z" fill="#101828"/>
<path d="M709 29.75H691C690.59 29.75 690.25 29.41 690.25 29C690.25 28.59 690.59 28.25 691 28.25H709C709.41 28.25 709.75 28.59 709.75 29C709.75 29.41 709.41 29.75 709 29.75Z" fill="#475467"/>
<path d="M709 34.75H691C690.59 34.75 690.25 34.41 690.25 34C690.25 33.59 690.59 33.25 691 33.25H709C709.41 33.25 709.75 33.59 709.75 34C709.75 34.41 709.41 34.75 709 34.75Z" fill="#475467"/>
<path d="M709 39.75H691C690.59 39.75 690.25 39.41 690.25 39C690.25 38.59 690.59 38.25 691 38.25H709C709.41 38.25 709.75 38.59 709.75 39C709.75 39.41 709.41 39.75 709 39.75Z" fill="#475467"/>
</svg>
