<svg width="48" height="48" viewBox="0 0 48 48" fill="none" xmlns="http://www.w3.org/2000/svg">
<path opacity="0.4" d="M23.5001 18.86L17.0001 30L15.7401 32.18L10.8001 40.62C10.4401 41.26 9.52008 41.28 9.12008 40.66L2.36007 30.56C2.14007 30.22 2.14007 29.78 2.36007 29.44L9.7001 18.44C9.8801 18.16 10.2001 18 10.5401 18H23.0001L23.5001 18.86Z" fill="#15B79E"/>
<path d="M45.68 29.46L32.28 6.5C32.12 6.18 31.78 6 31.42 6H17.74C16.96 6 16.48 6.84 16.88 7.5L23 18L23.5 18.86L29.12 28.5C29.52 29.16 29.04 30 28.26 30H17L15.74 32.18C16.1 31.54 17.02 31.52 17.42 32.14L23.7 41.56C23.88 41.84 24.2 42 24.54 42H37.46C37.8 42 38.12 41.84 38.3 41.56L45.66 30.52C45.86 30.2 45.88 29.8 45.68 29.46Z" fill="#15B79E"/>
</svg>
